#define max_width 16
#define max_height 16
static unsigned char max_bits[] = {
 0x00, 0x00, 0x00, 0x00, 0x00, 0x00, 0xff, 0x3f, 0xff, 0x3f, 0xff, 0x3f,
 0x01, 0x20, 0x01, 0x20, 0x01, 0x20, 0x01, 0x20, 0x01, 0x20, 0x01, 0x20,
 0x01, 0x20, 0xff, 0x3f, 0x00, 0x00, 0x00, 0x00 };
