#define maxact_width 16
#define maxact_height 16
static unsigned char maxact_bits[] = {
 0x00, 0x00, 0x00, 0x00, 0x00, 0x00, 0x00, 0x00, 0xE0, 0x7F, 0xE0, 0x7F,
 0x00, 0x60, 0xFE, 0x67, 0xFE, 0x67, 0x06, 0x66, 0x06, 0x76, 0x06, 0x06,
 0x06, 0x06, 0xFE, 0x07, 0x00, 0x00, 0x00, 0x00 };
