#define min_width 16
#define min_height 16
static unsigned char min_bits[] = {
 0x00, 0x00, 0x00, 0x00, 0x00, 0x00, 0x00, 0x00, 0x00, 0x00, 0x00, 0x00,
 0x00, 0x00, 0x00, 0x00, 0x00, 0x00, 0x00, 0x00, 0x00, 0x00, 0xFE, 0x0F,
 0xFE, 0x0F, 0xFE, 0x0F, 0x00, 0x00, 0x00, 0x00 };
